<svg xmlns="http://www.w3.org/2000/svg" width="63.987" height="72">
    <path fill="#FB7D7E" fill-rule="evenodd" d="M33.5 2.5l-3.375 15.375s-.75 4.5 3.625.875 10.625-8.875 10.625-8.875S48.125 7.125 48 14.5s-.125 26.125-.125 26.125-1.25 3.625-4.5 1.375c-3.125-2.75-13.25-11.625-13.25-11.625s-4.25-2-5.125 2c0 .375-.5 7.125-.5 7.125s.25 2.5-2 1.75-5.375-3-5.375-3-2.375.125 0-3S24 29.75 24 29.75s2.625-3.5 8.125-1.125 6.625 3 6.625 3 4.25 1.25 4.25-2.25v-7.75s-.75-4.375-4-3-10.625 7.125-11.125 1.75c-.25-.125 3.875-17.75 3.875-17.75L33.5 2.5z"/>
    <path fill="#FB7D7E" fill-rule="evenodd" d="M.755 31.909l14.941-4.955s4.251-1.655-1.1-3.563c-5.352-1.909-13.058-4.598-13.058-4.598s-4.28-1.818 2.123-5.48C10.064 9.652 26.182.072 26.182.072s3.754-.778 3.481 3.165c-.767 4.091-3.222 17.33-3.222 17.33s.452 4.675 4.338 3.383c.322-.191 6.38-3.211 6.38-3.211s2.021-1.492 2.526.825c.505 2.317.168 6.153.168 6.153s1.321 1.978-2.579 1.533c-3.9-.444-8.241-3.099-8.241-3.099s-4.35-.468-5.119-6.409c-.768-5.942-.806-7.228-.806-7.228s-1.097-4.292-4.106-2.504l-6.662 3.961s-3.377 2.88-.534 4.971c2.842 2.091 11.553 5.492 7.189 8.669.02.279-17.238 5.739-17.238 5.739L.755 31.909z"/>
    <path fill="#FB7D7E" fill-rule="evenodd" d="M41.522 45.422L30.11 34.58s-3.463-2.97-2.624 2.65c.839 5.619 2.098 13.684 2.098 13.684s.413 4.631-5.833.709C17.504 47.7 1.458 38 1.458 38s-2.455-2.945 1.152-4.562c3.97-1.252 16.803-5.325 16.803-5.325s3.91-2.602.94-5.421c-.321-.194-5.839-4.114-5.839-4.114s-2.269-1.079-.463-2.616c1.806-1.538 5.348-3.048 5.348-3.048s1.122-2.097 2.568 1.552c1.445 3.649 1.15 8.729 1.15 8.729s1.637 4.057-3.241 7.535c-4.878 3.478-5.995 4.117-5.995 4.117s-3.268 2.991-.273 4.802l6.632 4.009s4.132 1.622 4.637-1.871c.505-3.493-.601-12.779 4.258-10.426.236-.149 13.185 12.499 13.185 12.499l-.798 1.562z"/>
</svg>
