<svg xmlns="http://www.w3.org/2000/svg" width="99.326" height="1.57cm">
    <path fill="#FFF" fill-rule="evenodd" d="M36.603 17.133L52.702 1.538c.455.449.738 1.073.738 1.763v31.398c0 .652-.257 1.24-.668 1.683L36.603 17.133zM1.385 1.467C1.824 1.07 2.4.822 3.038.822h47.924c.638 0 1.214.248 1.654.645L27 21.479 1.385 1.467zm-.157 34.915C.817 35.939.56 35.351.56 34.699V3.301c0-.69.283-1.314.738-1.763l16.099 15.595L1.228 36.382zM27 26.436l6.722-6.512 18.939 16.572c-.444.42-1.04.682-1.699.682H3.038c-.659 0-1.255-.262-1.699-.682l18.939-16.572L27 26.436z"/>
    <path fill="#FFF" fill-rule="evenodd" stroke="#E66768" stroke-width="3" d="M58.967 32.323c-.475.83-1.334 1.414-2.359 1.414-1.524 0-2.759-1.235-2.759-2.758v-1.61s-17.316-1.793-21.734 7.932c7.658-16.852 21.734-15.518 21.734-15.518v-1.839c0-1.523 1.235-2.758 2.759-2.758 1.021 0 1.876.58 2.353 1.405l8.335 6.251c.455.341.455.893 0 1.234l-8.329 6.247z"/>
</svg>
